<mxfile host="app.diagrams.net" modified="2022-04-30T14:28:49.517Z" agent="5.0 (Macintosh; Intel Mac OS X 10_15_7) AppleWebKit/537.36 (KHTML, like Gecko) Chrome/100.0.4896.88 Safari/537.36" etag="_M8f4-a99lL5dq1N2Ttd" version="17.4.6" type="github">
  <diagram id="ckziBtfAwVjLUEk3HTnu" name="Page-1">
    <mxGraphModel dx="1598" dy="487" grid="0" gridSize="10" guides="1" tooltips="1" connect="1" arrows="1" fold="1" page="1" pageScale="1" pageWidth="827" pageHeight="1169" math="0" shadow="0">
      <root>
        <mxCell id="0" />
        <mxCell id="1" parent="0" />
        <mxCell id="jTQS1fCiy9Y_mt8qG9e6-1" value="&lt;pre style=&quot;font-size: 9.8pt&quot;&gt;&lt;font color=&quot;#f19c99&quot;&gt;val&lt;/font&gt; analyzedDF = spark.sql(&quot;SELECT * FROM testData2 tt&quot;)&lt;br&gt;&lt;span style=&quot;color: rgb(204 , 120 , 50)&quot;&gt;val &lt;/span&gt;analyzed = analyzedDF.queryExecution&lt;span style=&quot;color: rgb(169 , 183 , 198)&quot;&gt;.&lt;span style=&quot;color: #9876aa ; font-style: italic&quot;&gt;analyzed&lt;/span&gt;&lt;/span&gt;&lt;/pre&gt;&lt;pre style=&quot;font-size: 9.8pt&quot;&gt;&lt;span style=&quot;color: rgb(169 , 183 , 198)&quot;&gt;&lt;span style=&quot;color: #9876aa ; font-style: italic&quot;&gt;&lt;br&gt;&lt;/span&gt;&lt;/span&gt;&lt;/pre&gt;" style="text;html=1;strokeColor=none;fillColor=none;align=left;verticalAlign=middle;whiteSpace=wrap;rounded=0;labelBackgroundColor=none;fontColor=#000000;fontFamily=jetbrains mono&quot;, monospace;" parent="1" vertex="1">
          <mxGeometry x="-100" y="135" width="449" height="59" as="geometry" />
        </mxCell>
        <mxCell id="uQ7kgvdbSzGH_BTh4Y6S-5" value="" style="edgeStyle=orthogonalEdgeStyle;rounded=0;orthogonalLoop=1;jettySize=auto;html=1;fontFamily=Comic Sans MS;fontSize=12;fontColor=default;" parent="1" source="uQ7kgvdbSzGH_BTh4Y6S-1" target="uQ7kgvdbSzGH_BTh4Y6S-4" edge="1">
          <mxGeometry relative="1" as="geometry" />
        </mxCell>
        <mxCell id="uQ7kgvdbSzGH_BTh4Y6S-1" value="spark.sql(sqlText)" style="rounded=1;sketch=0;glass=0;shadow=0;labelBackgroundColor=none;fontFamily=Comic Sans MS;fontSize=10;html=1;whiteSpace=wrap;fillColor=#89D685;strokeColor=#82b366;" parent="1" vertex="1">
          <mxGeometry x="103" y="251" width="150" height="43" as="geometry" />
        </mxCell>
        <mxCell id="uQ7kgvdbSzGH_BTh4Y6S-9" value="" style="edgeStyle=orthogonalEdgeStyle;rounded=0;orthogonalLoop=1;jettySize=auto;html=1;fontFamily=Comic Sans MS;fontSize=12;fontColor=default;" parent="1" source="uQ7kgvdbSzGH_BTh4Y6S-4" target="uQ7kgvdbSzGH_BTh4Y6S-8" edge="1">
          <mxGeometry relative="1" as="geometry" />
        </mxCell>
        <mxCell id="uQ7kgvdbSzGH_BTh4Y6S-4" value="SparkSession.sql(sqlText){&lt;br&gt;sqlParser.parsePlan(sqlText)&lt;br&gt;Dataset&lt;font color=&quot;#ff3333&quot;&gt;&lt;i&gt;&lt;b&gt;.ofRows&lt;/b&gt;&lt;/i&gt;&lt;/font&gt;(self, plan, tracker)&lt;br&gt;}" style="rounded=1;sketch=1;glass=0;shadow=0;fontFamily=Comic Sans MS;fontSize=10;spacing=0;verticalAlign=middle;fontColor=default;labelBackgroundColor=none;html=1;whiteSpace=wrap;" parent="1" vertex="1">
          <mxGeometry x="47.17" y="331" width="261.66" height="67" as="geometry" />
        </mxCell>
        <mxCell id="uQ7kgvdbSzGH_BTh4Y6S-14" value="" style="edgeStyle=orthogonalEdgeStyle;rounded=0;orthogonalLoop=1;jettySize=auto;html=1;fontFamily=Comic Sans MS;fontSize=12;fontColor=#3333FF;" parent="1" source="uQ7kgvdbSzGH_BTh4Y6S-8" target="uQ7kgvdbSzGH_BTh4Y6S-13" edge="1">
          <mxGeometry relative="1" as="geometry" />
        </mxCell>
        <mxCell id="uQ7kgvdbSzGH_BTh4Y6S-8" value="Dataset.ofRows(LogicalPlan){&lt;br style=&quot;font-size: 9px;&quot;&gt;qe=&lt;font color=&quot;#ff3333&quot; style=&quot;font-size: 9px;&quot;&gt;&lt;b style=&quot;font-size: 9px;&quot;&gt;&lt;i style=&quot;font-size: 9px;&quot;&gt;new QueryExecution&lt;/i&gt;&lt;/b&gt;&lt;/font&gt;(.,logicalPlan,.)&lt;br style=&quot;font-size: 9px;&quot;&gt;}" style="rounded=1;sketch=1;glass=0;shadow=0;fontFamily=Comic Sans MS;fontSize=9;spacing=0;verticalAlign=middle;fontColor=default;labelBackgroundColor=none;html=1;whiteSpace=wrap;" parent="1" vertex="1">
          <mxGeometry x="35.800000000000004" y="448" width="284.41" height="50" as="geometry" />
        </mxCell>
        <mxCell id="uQ7kgvdbSzGH_BTh4Y6S-10" value="analyzedDF是Dataset类型，里面有queryExecution对象&lt;font color=&quot;#ff3333&quot; style=&quot;font-size: 10px&quot;&gt;&lt;br&gt;&lt;/font&gt;" style="text;html=1;strokeColor=none;fillColor=none;align=left;verticalAlign=middle;whiteSpace=wrap;rounded=0;shadow=0;glass=0;labelBackgroundColor=none;sketch=1;fontFamily=Comic Sans MS;fontSize=10;fontColor=#3333FF;" parent="1" vertex="1">
          <mxGeometry x="-305" y="135" width="205" height="42" as="geometry" />
        </mxCell>
        <mxCell id="uQ7kgvdbSzGH_BTh4Y6S-11" value="&lt;font color=&quot;#ff3333&quot; style=&quot;font-size: 10px;&quot;&gt;1. parsePlan生成未解析的执行计划&lt;/font&gt;&lt;br style=&quot;font-size: 10px;&quot;&gt;&lt;div style=&quot;text-align: left; font-size: 10px;&quot;&gt;&lt;span style=&quot;font-size: 10px;&quot;&gt;2. 传入ofRows函数里&lt;/span&gt;&lt;/div&gt;" style="text;html=1;strokeColor=none;fillColor=none;align=center;verticalAlign=middle;whiteSpace=wrap;rounded=0;shadow=0;glass=0;labelBackgroundColor=none;sketch=1;fontFamily=Comic Sans MS;fontSize=10;fontColor=#3333FF;" parent="1" vertex="1">
          <mxGeometry x="-162.83" y="337" width="210" height="61" as="geometry" />
        </mxCell>
        <mxCell id="uQ7kgvdbSzGH_BTh4Y6S-12" value="new 一个queryexecution，返回给qe" style="text;html=1;strokeColor=none;fillColor=none;align=center;verticalAlign=middle;whiteSpace=wrap;rounded=0;shadow=0;glass=0;labelBackgroundColor=none;sketch=1;fontFamily=Comic Sans MS;fontSize=10;fontColor=#3333FF;" parent="1" vertex="1">
          <mxGeometry x="-174.20000000000002" y="440" width="210" height="61" as="geometry" />
        </mxCell>
        <mxCell id="uQ7kgvdbSzGH_BTh4Y6S-17" value="" style="edgeStyle=orthogonalEdgeStyle;rounded=0;orthogonalLoop=1;jettySize=auto;html=1;fontFamily=Comic Sans MS;fontSize=12;fontColor=#3333FF;" parent="1" source="uQ7kgvdbSzGH_BTh4Y6S-13" target="uQ7kgvdbSzGH_BTh4Y6S-16" edge="1">
          <mxGeometry relative="1" as="geometry" />
        </mxCell>
        <mxCell id="uQ7kgvdbSzGH_BTh4Y6S-13" value="&lt;div style=&quot;text-align: left ; font-size: 9.8pt&quot;&gt;&lt;font color=&quot;#000000&quot;&gt;analyzedDF.queryExecution&lt;/font&gt;&lt;font color=&quot;#ff3333&quot;&gt;&lt;b&gt;.&lt;span style=&quot;font-style: italic&quot;&gt;analyzed&lt;/span&gt;&lt;/b&gt;&lt;/font&gt;&lt;/div&gt;" style="text;html=1;strokeColor=none;fillColor=none;align=center;verticalAlign=middle;whiteSpace=wrap;rounded=0;shadow=0;glass=0;labelBackgroundColor=none;sketch=1;fontFamily=Comic Sans MS;fontSize=12;fontColor=#3333FF;" parent="1" vertex="1">
          <mxGeometry x="6" y="531" width="343" height="34" as="geometry" />
        </mxCell>
        <mxCell id="uQ7kgvdbSzGH_BTh4Y6S-15" value="当取queryExecution里的analyzed变量值时,会进入QueryExecution类" style="text;html=1;strokeColor=none;fillColor=none;align=center;verticalAlign=middle;whiteSpace=wrap;rounded=0;shadow=0;glass=0;labelBackgroundColor=none;sketch=1;fontFamily=Comic Sans MS;fontSize=10;fontColor=#3333FF;" parent="1" vertex="1">
          <mxGeometry x="-196" y="524" width="231.8" height="61" as="geometry" />
        </mxCell>
        <mxCell id="uQ7kgvdbSzGH_BTh4Y6S-20" value="" style="edgeStyle=orthogonalEdgeStyle;rounded=0;orthogonalLoop=1;jettySize=auto;html=1;fontFamily=Comic Sans MS;fontSize=10;fontColor=#3333FF;" parent="1" source="uQ7kgvdbSzGH_BTh4Y6S-16" target="uQ7kgvdbSzGH_BTh4Y6S-19" edge="1">
          <mxGeometry relative="1" as="geometry" />
        </mxCell>
        <mxCell id="uQ7kgvdbSzGH_BTh4Y6S-16" value="QueryExecution.analyzed&lt;br&gt;val analyzed = executePhase() {&lt;br&gt;...analyzer&lt;b&gt;&lt;i&gt;&lt;font color=&quot;#ff3333&quot;&gt;.&lt;/font&gt;&lt;/i&gt;&lt;/b&gt;&lt;font color=&quot;#ff3333&quot;&gt;&lt;i&gt;&lt;b&gt;executeAndCheck&lt;/b&gt;&lt;/i&gt;&lt;/font&gt;(logical)&lt;br&gt;}" style="rounded=1;sketch=1;glass=0;shadow=0;fontFamily=Comic Sans MS;fontSize=10;spacing=0;verticalAlign=middle;fontColor=default;labelBackgroundColor=none;html=1;whiteSpace=wrap;" parent="1" vertex="1">
          <mxGeometry x="35.3" y="605" width="285.7" height="63" as="geometry" />
        </mxCell>
        <mxCell id="uQ7kgvdbSzGH_BTh4Y6S-18" value="analyzed变量值，&lt;font style=&quot;font-size: 10px;&quot;&gt;调用executeAndCheck函数&lt;/font&gt;，传入logicalplan" style="text;html=1;strokeColor=none;fillColor=none;align=center;verticalAlign=middle;whiteSpace=wrap;rounded=0;shadow=0;glass=0;labelBackgroundColor=none;sketch=1;fontFamily=Comic Sans MS;fontSize=10;fontColor=#3333FF;" parent="1" vertex="1">
          <mxGeometry x="-197" y="605" width="232.3" height="57" as="geometry" />
        </mxCell>
        <mxCell id="uQ7kgvdbSzGH_BTh4Y6S-22" value="" style="edgeStyle=orthogonalEdgeStyle;rounded=0;orthogonalLoop=1;jettySize=auto;html=1;fontFamily=Comic Sans MS;fontSize=10;fontColor=#3333FF;" parent="1" source="uQ7kgvdbSzGH_BTh4Y6S-19" target="uQ7kgvdbSzGH_BTh4Y6S-21" edge="1">
          <mxGeometry relative="1" as="geometry" />
        </mxCell>
        <mxCell id="uQ7kgvdbSzGH_BTh4Y6S-19" value="Analyzer.executeAndCheck(){&lt;br&gt;analyzed = &lt;b&gt;&lt;i&gt;&lt;font color=&quot;#ff3333&quot;&gt;executeAndTrack&lt;/font&gt;&lt;/i&gt;&lt;/b&gt;(plan)&lt;br&gt;}" style="rounded=1;sketch=1;glass=0;shadow=0;fontFamily=Comic Sans MS;fontSize=10;spacing=0;verticalAlign=middle;fontColor=default;labelBackgroundColor=none;html=1;whiteSpace=wrap;" parent="1" vertex="1">
          <mxGeometry x="69.6" y="705" width="217.1" height="54" as="geometry" />
        </mxCell>
        <mxCell id="uQ7kgvdbSzGH_BTh4Y6S-24" value="" style="edgeStyle=orthogonalEdgeStyle;rounded=0;orthogonalLoop=1;jettySize=auto;html=1;fontFamily=Comic Sans MS;fontSize=10;fontColor=#3333FF;" parent="1" source="uQ7kgvdbSzGH_BTh4Y6S-21" target="uQ7kgvdbSzGH_BTh4Y6S-23" edge="1">
          <mxGeometry relative="1" as="geometry" />
        </mxCell>
        <mxCell id="uQ7kgvdbSzGH_BTh4Y6S-21" value="RuleExecutor.executeAndTrack(){&lt;br&gt;&lt;b&gt;&lt;i&gt;&lt;font color=&quot;#ff3333&quot;&gt;execute(plan)&lt;/font&gt;&lt;/i&gt;&lt;/b&gt;&lt;br&gt;}" style="rounded=1;sketch=1;glass=0;shadow=0;fontFamily=Comic Sans MS;fontSize=10;spacing=0;verticalAlign=middle;fontColor=default;labelBackgroundColor=none;html=1;whiteSpace=wrap;" parent="1" vertex="1">
          <mxGeometry x="335" y="705" width="213.7" height="54" as="geometry" />
        </mxCell>
        <mxCell id="uQ7kgvdbSzGH_BTh4Y6S-23" value="RuleExecutor.execute(){&lt;br&gt;&lt;b&gt;&lt;i&gt;&lt;font color=&quot;#ff3333&quot;&gt;batches.foreach{&lt;br&gt;batch&lt;/font&gt;&lt;/i&gt;&lt;/b&gt;&lt;br&gt;}}" style="rounded=1;sketch=1;glass=0;shadow=0;fontFamily=Comic Sans MS;fontSize=10;spacing=0;verticalAlign=middle;fontColor=default;labelBackgroundColor=none;html=1;whiteSpace=wrap;" parent="1" vertex="1">
          <mxGeometry x="355" y="796" width="173.7" height="61" as="geometry" />
        </mxCell>
        <mxCell id="YMlUxF1DXPdus4ILqh-h-1" value="&lt;font style=&quot;font-size: 10px;&quot;&gt;1. 在Analyzer里重写了父类的&lt;/font&gt;&lt;span style=&quot;font-size: 10px;&quot;&gt;&lt;font style=&quot;font-size: 10px;&quot;&gt;batches变量，定义了解析规则&lt;br style=&quot;font-size: 10px;&quot;&gt;2. 定义executeAndCheck函数调用父类的executeAndTrack函数&lt;/font&gt;&lt;br style=&quot;font-size: 10px;&quot;&gt;&lt;/span&gt;" style="text;html=1;strokeColor=none;fillColor=none;align=left;verticalAlign=middle;whiteSpace=wrap;rounded=0;shadow=0;glass=0;labelBackgroundColor=none;sketch=1;fontFamily=Comic Sans MS;fontSize=10;fontColor=#FF3333;" vertex="1" parent="1">
          <mxGeometry x="-179" y="707" width="245" height="59" as="geometry" />
        </mxCell>
        <mxCell id="YMlUxF1DXPdus4ILqh-h-2" value="父类RuleExecutor的函数实际调用了execute，也是父类中的函数" style="text;html=1;strokeColor=none;fillColor=none;align=center;verticalAlign=middle;whiteSpace=wrap;rounded=0;shadow=0;glass=0;labelBackgroundColor=none;sketch=1;fontFamily=Comic Sans MS;fontSize=10;fontColor=#3333FF;" vertex="1" parent="1">
          <mxGeometry x="548.7" y="702" width="232.3" height="57" as="geometry" />
        </mxCell>
        <mxCell id="YMlUxF1DXPdus4ILqh-h-3" value="&lt;font style=&quot;font-size: 10px&quot;&gt;1. 重要函数，真正的遍历Analyzer离重写的batches&lt;br&gt;&lt;/font&gt;&lt;span style=&quot;font-size: 10px&quot;&gt;&lt;font style=&quot;font-size: 10px&quot;&gt;2. 定义executeAndCheck函数调用父类的executeAndTrack函数&lt;/font&gt;&lt;br style=&quot;font-size: 10px&quot;&gt;&lt;/span&gt;" style="text;html=1;strokeColor=none;fillColor=none;align=left;verticalAlign=middle;whiteSpace=wrap;rounded=0;shadow=0;glass=0;labelBackgroundColor=none;sketch=1;fontFamily=Comic Sans MS;fontSize=10;fontColor=#FF3333;" vertex="1" parent="1">
          <mxGeometry x="548.7" y="796" width="245" height="59" as="geometry" />
        </mxCell>
        <mxCell id="YMlUxF1DXPdus4ILqh-h-5" value="" style="curved=1;endArrow=classic;html=1;rounded=0;fontFamily=Comic Sans MS;fontSize=10;fontColor=#FF3333;entryX=0.75;entryY=1;entryDx=0;entryDy=0;exitX=0;exitY=0.5;exitDx=0;exitDy=0;" edge="1" parent="1" source="uQ7kgvdbSzGH_BTh4Y6S-23" target="YMlUxF1DXPdus4ILqh-h-1">
          <mxGeometry width="50" height="50" relative="1" as="geometry">
            <mxPoint x="283" y="915" as="sourcePoint" />
            <mxPoint x="333" y="865" as="targetPoint" />
            <Array as="points">
              <mxPoint x="212" y="827" />
              <mxPoint x="79" y="810" />
            </Array>
          </mxGeometry>
        </mxCell>
        <mxCell id="YMlUxF1DXPdus4ILqh-h-6" value="去遍历batches" style="edgeLabel;html=1;align=center;verticalAlign=middle;resizable=0;points=[];fontSize=10;fontFamily=Comic Sans MS;fontColor=#FF3333;" vertex="1" connectable="0" parent="YMlUxF1DXPdus4ILqh-h-5">
          <mxGeometry x="-0.1039" y="-1" relative="1" as="geometry">
            <mxPoint x="1" y="1" as="offset" />
          </mxGeometry>
        </mxCell>
      </root>
    </mxGraphModel>
  </diagram>
</mxfile>
